<svg version="1.1" id="Layer_1" xmlns="http://www.w3.org/2000/svg" xmlns:xlink="http://www.w3.org/1999/xlink" x="0px" y="0px" viewBox="0 0 400 400" style="enable-background:new 0 0 400 400;" xml:space="preserve">
<g>
  <path d="M368.8,125.5v-15.1h-17.6c-46.1-96.7-135.7-97.9-135.7-97.9V0h-31v12.5c0,0-89.6,1.2-135.7,97.9H31.2v15.1h4.3v104.7h-4.3
    v15.5h17.2c0,0,37.6,88.1,136.1,97.7l0,56.6h30.9l0-56.6c98.5-9.7,136.1-97.7,136.1-97.7h17.2v-15.5h-4.3V125.5H368.8z M208.2,19.3
    c78.4,7.4,112,85.3,114.1,91.4h-63.8c-19.7-66-50.2-87.4-50.2-87.4V19.3z M196.4,19.3v4c0,0-30.6,21.5-50.3,87.4H82.4
    C84.4,104.6,118,26.7,196.4,19.3z M196.3,338c-78.4-7.4-112-85.3-114.1-91.4H146c19.7,66,50.2,87.4,50.2,87.4V338z M208,338v-3.9
    c0,0,30.6-21.5,50.2-87.4h63.9C320.1,252.7,286.4,330.6,208,338z M366.8,236.8v4.5H38.6v-4.5H366.8z M359.8,142.6v72.5H44.5v-72.5
    H359.8z M44.5,138.4v-12.5h315.3v12.5H44.5z M359.8,218.9v12.5H44.5v-12.5H359.8z M38,120.8v-4.5h328.3l0,4.5H38z"></path>
  <g>
    <path d="M68.8,168.6c-0.4,0.2-0.7,0.4-0.9,0.7c-0.2,0.3-0.3,0.8-0.4,1.6l-0.1,0.4l-3.6,22.5h-8.7l-3.9-22.7
      c-0.2-1-0.4-1.6-0.5-1.9c-0.2-0.3-0.5-0.5-0.9-0.6v-4.9h8.6v4.9c-0.9,0.1-1.3,0.6-1.3,1.5c0,0.1,0,0.2,0,0.3c0,0.1,0,0.3,0.1,0.4
      l0.1,0.6l2.7,15l2.5-15.2c0.1-0.6,0.2-1,0.2-1.3c0-0.9-0.5-1.4-1.4-1.4v-4.9h7.6V168.6z"></path>
    <path d="M71,188.9c0.5-0.2,0.8-0.4,1-0.7c0.2-0.3,0.3-0.9,0.3-1.6v-0.6v-14.3V171c0-0.8-0.1-1.3-0.3-1.6c-0.2-0.3-0.5-0.5-1-0.7
      v-5h8.4v5c-0.5,0.2-0.8,0.4-1,0.7c-0.2,0.3-0.3,0.9-0.3,1.6v0.6v14.3v0.6c0,0.8,0.1,1.3,0.3,1.7c0.2,0.3,0.5,0.6,1,0.7v4.9H71
      V188.9z"></path>
    <path d="M82.3,188.9c0.5-0.2,0.8-0.4,1-0.7c0.2-0.3,0.3-0.9,0.3-1.6v-0.6v-14.3V171c0-0.8-0.1-1.3-0.3-1.6c-0.2-0.3-0.5-0.5-1-0.7
      v-5h8.4v5c-0.5,0.2-0.8,0.4-1,0.7c-0.2,0.3-0.3,0.9-0.3,1.6v0.6v16.3h2.3c1,0,1.6-0.2,2-0.6c0.4-0.4,0.5-1,0.5-2v-0.8v-4.4h5.1
      v13.6H82.3V188.9z"></path>
    <path d="M101.9,188.9c0.5-0.2,0.8-0.4,1-0.7c0.2-0.3,0.3-0.9,0.3-1.6v-0.6v-14.3V171c0-0.8-0.1-1.3-0.3-1.6
      c-0.2-0.3-0.5-0.5-1-0.7v-5h8.4v5c-0.5,0.2-0.8,0.4-1,0.7c-0.2,0.3-0.3,0.9-0.3,1.6v0.6v16.3h2.3c1,0,1.6-0.2,2-0.6
      c0.4-0.4,0.5-1,0.5-2v-0.8v-4.4h5.1v13.6h-17.1V188.9z"></path>
    <path d="M138.4,186.2c0.1,0.5,0.2,0.9,0.2,1.2c0.1,0.3,0.2,0.5,0.3,0.7c0.1,0.2,0.2,0.3,0.4,0.5c0.1,0.1,0.3,0.2,0.5,0.3v4.9h-8.5
      v-4.9c0.9-0.1,1.3-0.5,1.3-1.4c0-0.1,0-0.1,0-0.2c0-0.1,0-0.2-0.1-0.5l0-0.2l-0.2-1.3h-4.9l-0.2,1.3c0,0.2,0,0.3-0.1,0.5
      c0,0.2,0,0.3,0,0.5c0,0.8,0.5,1.3,1.4,1.4v4.9h-7.7v-4.9c0.4-0.2,0.7-0.4,0.9-0.8s0.4-1.1,0.5-2.1l3.7-22.3h8.6L138.4,186.2z
       M129.7,171.1l-1.6,9.9h3.4L129.7,171.1z"></path>
    <path d="M151,178h7.7v13.6c-0.8,0.5-1.5,1-2.1,1.4c-0.6,0.4-1.3,0.7-1.9,0.9c-0.7,0.2-1.3,0.4-2,0.5c-0.7,0.1-1.4,0.1-2.3,0.1
      c-2.7,0-4.8-0.7-6.2-2c-1.4-1.3-2.1-3.3-2.1-5.9v-1.4v-12.9v-1.4c0.1-5.2,2.9-7.8,8.4-7.8c2.8,0,5.5,0.7,8.2,2.2v8h-5.4v-0.4
      c0-0.6,0-1.1-0.1-1.4c-0.1-0.3-0.2-0.7-0.4-1c-0.2-0.4-0.5-0.8-0.9-1c-0.4-0.3-0.8-0.4-1.3-0.4c-0.5,0-0.9,0.1-1.3,0.4
      c-0.4,0.3-0.7,0.6-0.9,1c-0.2,0.3-0.3,0.7-0.4,1c-0.1,0.4-0.1,0.9-0.1,1.7v0.5v9.9v0.7c0,0.6,0,1.1,0.1,1.5c0.1,0.4,0.2,0.7,0.4,1
      c0.2,0.4,0.5,0.8,0.9,1c0.4,0.2,0.8,0.4,1.3,0.4c0.5,0,0.9-0.1,1.3-0.4c0.4-0.2,0.7-0.6,0.9-1c0.2-0.3,0.3-0.7,0.4-1
      c0.1-0.3,0.1-0.8,0.1-1.5v-0.1v-1.5H151V178z"></path>
    <path d="M161.9,188.9c0.5-0.2,0.8-0.4,1-0.7c0.2-0.3,0.3-0.9,0.3-1.6v-0.6v-14.3V171c0-0.8-0.1-1.3-0.3-1.6
      c-0.2-0.3-0.5-0.5-1-0.7v-5h17.8v9.3h-5.4v-0.2c0-1.1-0.2-2-0.5-2.4c-0.3-0.5-0.9-0.7-1.8-0.7h-0.5h-2.5v6h7v5.2h-7v7.1h2.4h0.5
      c0.9,0,1.5-0.2,1.8-0.6c0.3-0.4,0.5-1.2,0.5-2.3v-1.2h5.4v10.1h-17.8V188.9z"></path>
    <path d="M208.3,192.1c-1.2,0.7-2.5,1.3-4,1.7c-1.5,0.4-2.9,0.6-4.2,0.6c-1.3,0-2.5-0.2-3.6-0.6c-1.1-0.4-2-0.9-2.8-1.6
      c-1.3-1.2-2-3.1-2-5.7v-1.4v-12.9v-1.4c0.1-5.2,2.9-7.8,8.4-7.8c1.4,0,2.7,0.2,4,0.5c1.3,0.3,2.7,0.9,4.2,1.6v8.5h-5.4v-0.4
      c0-0.8,0-1.4-0.1-1.8c-0.1-0.3-0.2-0.7-0.4-1c-0.3-0.4-0.6-0.8-1-1c-0.4-0.3-0.8-0.4-1.3-0.4c-0.5,0-0.9,0.1-1.3,0.4
      c-0.4,0.3-0.7,0.6-0.9,1c-0.2,0.3-0.3,0.7-0.4,1c-0.1,0.4-0.1,0.9-0.1,1.7v0.5v9.9c0,0.5,0,1,0,1.3c0,0.3,0,0.6,0.1,0.9
      c0,0.2,0.1,0.4,0.1,0.6c0.1,0.2,0.1,0.3,0.2,0.5c0.5,0.9,1.3,1.4,2.3,1.4c0.5,0,0.9-0.1,1.3-0.4c0.4-0.2,0.7-0.6,0.9-1
      c0.2-0.3,0.3-0.7,0.4-1s0.1-0.9,0.1-1.7v-0.5v-1.9h5.4V192.1z"></path>
    <path d="M211.4,188.9c0.5-0.2,0.8-0.4,1-0.7c0.2-0.3,0.3-0.9,0.3-1.6v-0.6v-14.3V171c0-0.8-0.1-1.3-0.3-1.6
      c-0.2-0.3-0.5-0.5-1-0.7v-5h8.4v5c-0.5,0.2-0.8,0.4-1,0.7c-0.2,0.3-0.3,0.9-0.3,1.6v0.6v16.3h2.3c1,0,1.6-0.2,2-0.6
      c0.4-0.4,0.5-1,0.5-2v-0.8v-4.4h5.1v13.6h-17.1V188.9z"></path>
    <path d="M231.1,188.9c0.5-0.2,0.8-0.4,1-0.7c0.2-0.3,0.3-0.9,0.3-1.6v-0.6v-14.3V171c0-0.8-0.1-1.3-0.3-1.6
      c-0.2-0.3-0.5-0.5-1-0.7v-5h17.8v9.3h-5.4v-0.2c0-1.1-0.2-2-0.5-2.4c-0.3-0.5-0.9-0.7-1.8-0.7h-0.5h-2.5v6h7v5.2h-7v7.1h2.4h0.5
      c0.9,0,1.5-0.2,1.8-0.6c0.3-0.4,0.5-1.2,0.5-2.3v-1.2h5.4v10.1h-17.8V188.9z"></path>
    <path d="M268.8,186.2c0.1,0.5,0.2,0.9,0.2,1.2c0.1,0.3,0.2,0.5,0.3,0.7c0.1,0.2,0.2,0.3,0.4,0.5c0.1,0.1,0.3,0.2,0.5,0.3v4.9h-8.5
      v-4.9c0.9-0.1,1.3-0.5,1.3-1.4c0-0.1,0-0.1,0-0.2c0-0.1,0-0.2-0.1-0.5l0-0.2l-0.2-1.3h-4.9l-0.2,1.3c0,0.2,0,0.3-0.1,0.5
      c0,0.2,0,0.3,0,0.5c0,0.8,0.5,1.3,1.4,1.4v4.9h-7.7v-4.9c0.4-0.2,0.7-0.4,0.9-0.8c0.2-0.4,0.4-1.1,0.5-2.1l3.7-22.3h8.6
      L268.8,186.2z M260.1,171.1l-1.6,9.9h3.4L260.1,171.1z"></path>
    <path d="M272.4,188.9c0.5-0.2,0.8-0.4,1-0.7c0.2-0.3,0.3-0.9,0.3-1.6v-0.6v-14.3V171c0-0.8-0.1-1.3-0.3-1.7
      c-0.2-0.3-0.5-0.6-1-0.7v-4.9h6.6l6.4,15.5v-7.6V171c0-0.8-0.1-1.3-0.3-1.7c-0.2-0.3-0.5-0.6-1-0.7v-4.9h8v4.9
      c-0.5,0.2-0.8,0.4-1,0.7c-0.2,0.3-0.3,0.9-0.3,1.6v0.6v22.2h-5.3L279,178v7.9v0.6c0,0.8,0.1,1.3,0.3,1.7c0.2,0.3,0.5,0.6,1,0.7
      v4.9h-7.9V188.9z"></path>
    <path d="M294.9,188.9c0.5-0.2,0.8-0.4,1-0.7c0.2-0.3,0.3-0.9,0.3-1.6v-0.6v-14.3V171c0-0.8-0.1-1.3-0.3-1.6
      c-0.2-0.3-0.5-0.5-1-0.7v-5h17.8v9.3h-5.4v-0.2c0-1.1-0.2-2-0.5-2.4c-0.3-0.5-0.9-0.7-1.8-0.7h-0.5H302v6h7v5.2h-7v7.1h2.4h0.5
      c0.9,0,1.5-0.2,1.8-0.6c0.3-0.4,0.5-1.2,0.5-2.3v-1.2h5.4v10.1h-17.8V188.9z"></path>
    <path d="M315.8,188.9c0.5-0.2,0.8-0.4,1-0.7c0.2-0.3,0.3-0.9,0.3-1.6v-0.6v-14.3V171c0-0.8-0.1-1.3-0.3-1.6
      c-0.2-0.3-0.5-0.5-1-0.7v-5h9.8h0.9c1.2,0,2.3,0.2,3.1,0.4c0.8,0.3,1.5,0.7,2.1,1.2c0.8,0.7,1.3,1.6,1.7,2.8
      c0.4,1.2,0.6,2.6,0.6,4.2c0,2-0.3,3.6-0.9,4.7c-0.6,1.1-1.6,1.9-3.1,2.3c1.2,0.2,2.1,0.7,2.7,1.4c0.5,0.7,0.8,1.7,0.8,3.1l0,2.4
      c0,0.8,0,1.4,0.2,1.7c0.2,0.4,0.5,0.7,0.9,0.9v4.9h-6.3c-0.2-0.6-0.3-1.3-0.4-1.9c-0.1-0.6-0.1-1.6-0.1-2.8v-2.6v-0.7
      c0-0.9,0-1.5-0.1-1.8c0-0.3-0.1-0.6-0.3-0.9c-0.2-0.5-0.5-0.8-0.8-0.9c-0.3-0.2-0.9-0.2-1.6-0.2h-2.1v4.1v0.6
      c0,0.8,0.1,1.3,0.3,1.7c0.2,0.3,0.5,0.6,1,0.7v4.9h-8.4V188.9z M322.9,176.5h1.6h0.4c0.7,0,1.3,0,1.6-0.1c0.3-0.1,0.6-0.3,0.9-0.5
      c0.6-0.5,0.9-1.6,0.9-3c0-1.4-0.3-2.3-0.8-2.8c-0.5-0.5-1.4-0.7-2.7-0.7h-0.3h-1.5V176.5z"></path>
    <path d="M354.5,173.6H349v-0.3v-0.2l0-0.8c0-1-0.2-1.8-0.7-2.4c-0.5-0.6-1.2-0.9-2-0.9c-0.8,0-1.4,0.3-1.9,0.8
      c-0.5,0.5-0.8,1.2-0.8,2c0,0.7,0.2,1.3,0.7,1.7c0.5,0.5,1.2,1,2.3,1.5l2.4,1.1c1.1,0.5,2.1,1,2.8,1.6c0.8,0.6,1.4,1.2,1.8,1.9
      c0.5,0.7,0.8,1.5,1,2.3c0.2,0.9,0.3,1.9,0.3,3c0,3-0.8,5.3-2.3,7c-1.5,1.7-3.6,2.5-6.3,2.5c-3,0-5.9-1.1-8.5-3.4v-7.6h5.8v0.4
      c0,0.8,0,1.4,0.1,1.8c0.1,0.4,0.1,0.8,0.3,1.1c0.2,0.5,0.5,0.9,1,1.2c0.4,0.3,0.9,0.4,1.5,0.4c0.8,0,1.5-0.3,2-0.9
      c0.5-0.6,0.8-1.3,0.8-2.3c0-0.5-0.1-0.9-0.2-1.3c-0.1-0.4-0.3-0.7-0.6-1c-0.3-0.3-0.7-0.6-1.3-0.9c-0.5-0.3-1.2-0.7-2.1-1.1
      c-0.6-0.3-1.1-0.5-1.5-0.7c-0.4-0.2-0.7-0.3-1-0.5c-0.3-0.1-0.5-0.3-0.7-0.4c-0.2-0.1-0.4-0.2-0.6-0.4c-2.2-1.4-3.4-3.8-3.4-7
      c0-2.8,0.8-5,2.3-6.6c1.5-1.6,3.6-2.3,6.4-2.3c1.5,0,3,0.3,4.4,0.9c1.4,0.6,2.7,1.5,3.7,2.5V173.6z"></path>
  </g>
</g>
</svg>