<svg version="1.1" id="Layer_1" xmlns="http://www.w3.org/2000/svg" xmlns:xlink="http://www.w3.org/1999/xlink" x="0px" y="0px" viewBox="0 0 400 61.6" style="enable-background:new 0 0 400 61.6;" xml:space="preserve">
<g>
	<g>
		<path d="M28.7,17.8c-0.5,0.2-0.9,0.5-1.1,0.9c-0.2,0.4-0.4,1.1-0.6,2l-0.1,0.5l-4.6,28.9H11.2l-5-29.1c-0.2-1.2-0.5-2.1-0.7-2.5
			c-0.2-0.4-0.6-0.7-1.2-0.8v-6.3h11v6.3c-1.1,0.1-1.7,0.7-1.7,1.9c0,0.1,0,0.3,0,0.4c0,0.2,0,0.4,0.1,0.6l0.1,0.8l3.4,19.3
			l3.2-19.5c0.1-0.8,0.2-1.3,0.2-1.7c0-1.2-0.6-1.8-1.8-1.8v-6.3h9.8V17.8z"></path>
		<path d="M31.5,43.9c0.6-0.2,1.1-0.5,1.3-1c0.2-0.4,0.4-1.1,0.4-2.1V40V21.7v-0.8c0-1-0.1-1.7-0.4-2.1s-0.7-0.7-1.3-0.9v-6.4h10.8
			v6.4c-0.6,0.2-1.1,0.5-1.3,0.9c-0.2,0.4-0.4,1.1-0.4,2.1v0.8V40v0.8c0,1,0.2,1.7,0.4,2.1c0.2,0.4,0.7,0.7,1.3,0.9v6.3H31.5V43.9z"></path>
		<path d="M46,43.9c0.6-0.2,1.1-0.5,1.3-1c0.2-0.4,0.4-1.1,0.4-2.1V40V21.7v-0.8c0-1-0.1-1.7-0.4-2.1s-0.7-0.7-1.3-0.9v-6.4h10.8
			v6.4c-0.6,0.2-1.1,0.5-1.3,0.9c-0.2,0.4-0.4,1.1-0.4,2.1v0.8v20.9h3c1.2,0,2.1-0.2,2.5-0.7c0.5-0.5,0.7-1.3,0.7-2.6v-1v-5.6h6.6
			v17.5H46V43.9z"></path>
		<path d="M71.2,43.9c0.6-0.2,1.1-0.5,1.3-1c0.2-0.4,0.4-1.1,0.4-2.1V40V21.7v-0.8c0-1-0.1-1.7-0.4-2.1s-0.7-0.7-1.3-0.9v-6.4h10.8
			v6.4c-0.6,0.2-1.1,0.5-1.3,0.9c-0.2,0.4-0.4,1.1-0.4,2.1v0.8v20.9h3c1.2,0,2.1-0.2,2.5-0.7c0.5-0.5,0.7-1.3,0.7-2.6v-1v-5.6h6.6
			v17.5H71.2V43.9z"></path>
		<path d="M118,40.5c0.1,0.6,0.2,1.1,0.3,1.5c0.1,0.4,0.2,0.7,0.4,1c0.1,0.3,0.3,0.4,0.5,0.6c0.2,0.1,0.4,0.3,0.7,0.4v6.3h-11v-6.3
			c1.1-0.1,1.7-0.7,1.7-1.8c0-0.1,0-0.2,0-0.3c0-0.1-0.1-0.3-0.1-0.7l0-0.2l-0.2-1.6h-6.2l-0.3,1.6c0,0.2-0.1,0.4-0.1,0.6
			c0,0.2,0,0.4,0,0.6c0,1.1,0.6,1.7,1.8,1.7v6.3h-9.9v-6.3c0.5-0.2,0.9-0.5,1.2-1s0.5-1.4,0.7-2.7l4.7-28.6H113L118,40.5z M106.8,21
			l-2.1,12.7h4.4L106.8,21z"></path>
		<path d="M134.2,29.9h9.9v17.4c-1,0.7-1.9,1.3-2.7,1.7c-0.8,0.5-1.7,0.8-2.5,1.1c-0.8,0.3-1.7,0.5-2.6,0.6
			c-0.9,0.1-1.8,0.2-2.9,0.2c-3.5,0-6.2-0.9-8-2.6c-1.8-1.7-2.7-4.2-2.7-7.6v-1.7V22.5v-1.7c0.1-6.7,3.7-10,10.8-10
			c3.6,0,7.1,0.9,10.5,2.8v10.3h-7v-0.5c0-0.8,0-1.4-0.1-1.8c-0.1-0.4-0.2-0.9-0.5-1.2c-0.3-0.5-0.7-1-1.2-1.3
			c-0.5-0.3-1.1-0.5-1.7-0.5c-0.6,0-1.2,0.2-1.7,0.5c-0.5,0.3-0.9,0.8-1.2,1.3c-0.3,0.4-0.4,0.9-0.5,1.3c-0.1,0.5-0.1,1.2-0.1,2.2
			v0.6v12.7v0.9c0,0.8,0,1.5,0.1,1.9c0.1,0.5,0.2,0.9,0.5,1.3c0.3,0.5,0.7,1,1.2,1.3c0.5,0.3,1.1,0.5,1.7,0.5c0.6,0,1.2-0.2,1.7-0.5
			c0.5-0.3,0.9-0.7,1.2-1.3c0.2-0.4,0.4-0.8,0.5-1.3c0.1-0.4,0.1-1.1,0.1-2v-0.2V36h-2.9V29.9z"></path>
		<path d="M148.1,43.9c0.6-0.2,1.1-0.5,1.3-1c0.2-0.4,0.4-1.1,0.4-2.1V40V21.7v-0.8c0-1-0.1-1.7-0.4-2.1c-0.2-0.4-0.7-0.7-1.3-0.9
			v-6.4h22.8v11.9h-7v-0.3c0-1.5-0.2-2.5-0.7-3.1c-0.4-0.6-1.2-0.9-2.3-0.9h-0.6h-3.2v7.7h9v6.6h-9v9.2h3.1h0.7
			c1.1,0,1.9-0.3,2.3-0.8c0.4-0.5,0.6-1.5,0.7-3v-1.5h7v12.9h-22.8V43.9z"></path>
		<path d="M207.6,47.9c-1.5,0.9-3.3,1.7-5.1,2.2c-1.9,0.5-3.7,0.8-5.4,0.8c-1.7,0-3.2-0.2-4.6-0.7c-1.4-0.5-2.6-1.2-3.6-2.1
			c-1.7-1.6-2.6-4-2.6-7.3v-1.7V22.5v-1.7c0.1-6.7,3.7-10,10.8-10c1.8,0,3.5,0.2,5.1,0.6c1.6,0.4,3.4,1.1,5.4,2.1v10.9h-7v-0.5
			c0-1.1,0-1.8-0.1-2.3c-0.1-0.4-0.2-0.9-0.5-1.3c-0.3-0.5-0.7-1-1.3-1.3c-0.5-0.3-1.1-0.5-1.6-0.5c-0.6,0-1.2,0.2-1.7,0.5
			c-0.5,0.3-0.9,0.8-1.2,1.3c-0.3,0.4-0.4,0.9-0.5,1.3c-0.1,0.5-0.1,1.2-0.1,2.2v0.6v12.7c0,0.7,0,1.3,0,1.7c0,0.4,0,0.8,0.1,1.1
			c0,0.3,0.1,0.5,0.2,0.7c0.1,0.2,0.2,0.4,0.3,0.6c0.7,1.2,1.6,1.7,2.9,1.7c0.6,0,1.2-0.2,1.7-0.5c0.5-0.3,0.9-0.7,1.2-1.3
			c0.3-0.4,0.4-0.9,0.5-1.3c0.1-0.4,0.1-1.2,0.1-2.2v-0.6v-2.4h7V47.9z"></path>
		<path d="M211.6,43.9c0.6-0.2,1.1-0.5,1.3-1c0.2-0.4,0.4-1.1,0.4-2.1V40V21.7v-0.8c0-1-0.1-1.7-0.4-2.1s-0.7-0.7-1.3-0.9v-6.4h10.8
			v6.4c-0.6,0.2-1.1,0.5-1.3,0.9c-0.2,0.4-0.4,1.1-0.4,2.1v0.8v20.9h3c1.2,0,2.1-0.2,2.5-0.7c0.5-0.5,0.7-1.3,0.7-2.6v-1v-5.6h6.6
			v17.5h-21.9V43.9z"></path>
		<path d="M236.9,43.9c0.6-0.2,1.1-0.5,1.3-1c0.2-0.4,0.4-1.1,0.4-2.1V40V21.7v-0.8c0-1-0.1-1.7-0.4-2.1c-0.2-0.4-0.7-0.7-1.3-0.9
			v-6.4h22.8v11.9h-7v-0.3c0-1.5-0.2-2.5-0.7-3.1c-0.4-0.6-1.2-0.9-2.3-0.9h-0.6h-3.2v7.7h9v6.6h-9v9.2h3.1h0.7
			c1.1,0,1.9-0.3,2.3-0.8c0.4-0.5,0.6-1.5,0.7-3v-1.5h7v12.9h-22.8V43.9z"></path>
		<path d="M285.3,40.5c0.1,0.6,0.2,1.1,0.3,1.5c0.1,0.4,0.2,0.7,0.4,1c0.1,0.3,0.3,0.4,0.5,0.6c0.2,0.1,0.4,0.3,0.7,0.4v6.3h-11
			v-6.3c1.1-0.1,1.7-0.7,1.7-1.8c0-0.1,0-0.2,0-0.3c0-0.1-0.1-0.3-0.1-0.7l0-0.2l-0.2-1.6h-6.2l-0.3,1.6c0,0.2-0.1,0.4-0.1,0.6
			c0,0.2,0,0.4,0,0.6c0,1.1,0.6,1.7,1.8,1.7v6.3h-9.9v-6.3c0.5-0.2,0.9-0.5,1.2-1c0.2-0.5,0.5-1.4,0.7-2.7l4.7-28.6h11.1L285.3,40.5
			z M274.1,21L272,33.7h4.4L274.1,21z"></path>
		<path d="M289.9,43.9c0.6-0.2,1.1-0.5,1.3-1c0.2-0.4,0.4-1.1,0.4-2.1V40V21.7v-0.8c0-1-0.1-1.7-0.4-2.1c-0.2-0.4-0.7-0.7-1.3-0.9
			v-6.3h8.5l8.3,19.9v-9.8v-0.8c0-1-0.2-1.7-0.4-2.1c-0.2-0.4-0.7-0.7-1.3-0.9v-6.3h10.2v6.3c-0.6,0.2-1.1,0.5-1.3,1
			c-0.2,0.4-0.4,1.2-0.4,2.1v0.8v28.5h-6.8l-8.4-20.3V40v0.8c0,1,0.2,1.7,0.4,2.1c0.2,0.4,0.7,0.7,1.3,0.9v6.3h-10.1V43.9z"></path>
		<path d="M318.7,43.9c0.6-0.2,1.1-0.5,1.3-1c0.2-0.4,0.4-1.1,0.4-2.1V40V21.7v-0.8c0-1-0.1-1.7-0.4-2.1c-0.2-0.4-0.7-0.7-1.3-0.9
			v-6.4h22.8v11.9h-7v-0.3c0-1.5-0.2-2.5-0.7-3.1c-0.4-0.6-1.2-0.9-2.3-0.9H331h-3.2v7.7h9v6.6h-9v9.2h3.1h0.7
			c1.1,0,1.9-0.3,2.3-0.8c0.4-0.5,0.6-1.5,0.7-3v-1.5h7v12.9h-22.8V43.9z"></path>
		<path d="M345.5,43.9c0.6-0.2,1.1-0.5,1.3-1c0.2-0.4,0.4-1.1,0.4-2.1V40V21.7v-0.8c0-1-0.1-1.7-0.4-2.1c-0.2-0.4-0.7-0.7-1.3-0.9
			v-6.4h12.6h1.1c1.6,0,2.9,0.2,4,0.6c1.1,0.3,2,0.8,2.7,1.5c1,0.9,1.7,2.1,2.2,3.7c0.5,1.5,0.8,3.3,0.8,5.3c0,2.6-0.4,4.7-1.2,6.1
			c-0.8,1.4-2.1,2.4-3.9,3c1.6,0.3,2.7,0.9,3.4,1.8c0.7,0.9,1,2.2,1,4l0,3.1c0,1,0.1,1.7,0.3,2.2c0.2,0.5,0.6,0.9,1.2,1.2v6.3h-8.1
			c-0.3-0.8-0.4-1.6-0.5-2.5c-0.1-0.8-0.1-2-0.1-3.6v-3.3v-0.9c0-1.1,0-1.9-0.1-2.3c0-0.4-0.2-0.8-0.4-1.2c-0.3-0.6-0.6-1-1-1.2
			c-0.4-0.2-1.1-0.3-2-0.3h-2.8V40v0.8c0,1,0.2,1.7,0.4,2.1c0.2,0.4,0.7,0.7,1.3,0.9v6.3h-10.8V43.9z M354.6,28h2h0.5
			c0.9,0,1.6-0.1,2-0.2c0.4-0.1,0.8-0.3,1.2-0.6c0.7-0.7,1.1-2,1.1-3.9c0-1.7-0.3-2.9-1-3.6c-0.6-0.6-1.8-1-3.5-1h-0.4h-1.9V28z"></path>
		<path d="M395.2,24.2h-7.2v-0.4v-0.2l0-1c0-1.3-0.3-2.3-0.9-3.1c-0.6-0.7-1.5-1.1-2.6-1.1c-1,0-1.8,0.3-2.5,1c-0.6,0.7-1,1.5-1,2.5
			c0,0.9,0.3,1.6,0.9,2.2c0.6,0.6,1.6,1.2,2.9,1.9l3.1,1.4c1.4,0.7,2.7,1.3,3.6,2.1c1,0.7,1.8,1.5,2.4,2.4c0.6,0.9,1,1.9,1.3,3
			c0.3,1.1,0.4,2.4,0.4,3.9c0,3.8-1,6.8-2.9,9c-2,2.2-4.7,3.2-8.1,3.2c-3.9,0-7.5-1.5-11-4.4v-9.8h7.4v0.5c0,1,0,1.8,0.1,2.3
			c0.1,0.5,0.2,1,0.3,1.4c0.3,0.7,0.7,1.2,1.2,1.5c0.6,0.4,1.2,0.6,2,0.6c1,0,1.9-0.4,2.5-1.1c0.6-0.8,1-1.7,1-2.9
			c0-0.6-0.1-1.2-0.2-1.6c-0.1-0.5-0.4-0.9-0.8-1.3c-0.4-0.4-0.9-0.8-1.6-1.2c-0.7-0.4-1.6-0.9-2.7-1.4c-0.8-0.3-1.4-0.6-1.9-0.9
			c-0.5-0.2-0.9-0.4-1.2-0.6c-0.3-0.2-0.6-0.3-0.9-0.5c-0.2-0.1-0.5-0.3-0.7-0.5c-2.9-1.8-4.3-4.8-4.3-9c0-3.6,1-6.4,2.9-8.4
			c1.9-2,4.7-3,8.2-3c1.9,0,3.8,0.4,5.7,1.2c1.8,0.8,3.4,1.9,4.7,3.2V24.2z"></path>
	</g>
</g>
</svg>