<?xml version="1.0" encoding="utf-8"?>
<!-- Generator: Adobe Illustrator 21.1.0, SVG Export Plug-In . SVG Version: 6.00 Build 0)  -->
<svg version="1.1" id="Layer_1" xmlns="http://www.w3.org/2000/svg" xmlns:xlink="http://www.w3.org/1999/xlink" x="0px" y="0px"
	 viewBox="0 0 400 400" style="enable-background:new 0 0 400 400;" xml:space="preserve">
<title>VC_Usability_Icons</title>
<g>
	<path d="M385.3,125.5c-20-50.1-59.7-89.7-109.8-109.8C227-3.7,173-3.7,124.5,15.7c-50.1,20-89.7,59.7-109.8,109.8
		C-4.7,174-4.7,228,14.7,276.5c20,50.1,59.7,89.7,109.8,109.8c48.5,19.4,102.6,19.4,151.1,0c50.1-20,89.7-59.7,109.8-109.8
		C404.7,228,404.7,174,385.3,125.5z M370.3,270.5c-9.2,22.7-22.8,43.5-39.9,61c-17.5,17.1-38.3,30.7-61,39.9
		c-44.5,18.1-94.4,18.1-138.9,0c-22.7-9.2-43.5-22.8-61-39.9c-17.1-17.5-30.7-38.3-39.9-61c-18.1-44.5-18.1-94.4,0-138.9
		c9.2-22.7,22.8-43.5,39.9-61c17.5-17.1,38.3-30.7,61-39.9c44.5-18.1,94.4-18.1,138.9,0c22.7,9.2,43.5,22.8,61,39.9
		c17.1,17.5,30.7,38.3,39.9,61C388.5,176.1,388.5,226,370.3,270.5z"/>
	<path d="M289.5,110.1c-3.1-3.1-8.2-3.1-11.3,0l-79,79l-79-79c-3.2-3-8.3-2.9-11.3,0.3c-2.9,3.1-2.9,7.9,0,11l79,79l-79,79
		c-3,3.2-2.9,8.3,0.3,11.3c3.1,2.9,7.9,2.9,11,0l79-79l79,79c3.2,3,8.3,2.9,11.3-0.3c2.9-3.1,2.9-7.9,0-11l-79-79l79-79
		C292.6,118.3,292.6,113.2,289.5,110.1z"/>
</g>
</svg>
