<svg id="Layer_1" data-name="Layer 1" xmlns="http://www.w3.org/2000/svg" viewBox="0 0 400 400"><title>VC_Usability_Icons</title><path d="M20.6,338H379.4a19.52,19.52,0,0,0,14.33-5.54,20.71,20.71,0,0,0,0-28.34,19.52,19.52,0,0,0-14.33-5.54H20.6a19.52,19.52,0,0,0-14.33,5.54,20.71,20.71,0,0,0,0,28.34A19.52,19.52,0,0,0,20.6,338Zm0-236.57H379.4a19.52,19.52,0,0,0,14.33-5.54,19.08,19.08,0,0,0,5.61-14.17,19.08,19.08,0,0,0-5.61-14.17A19.52,19.52,0,0,0,379.4,62H20.6A19.52,19.52,0,0,0,6.27,67.54,19.08,19.08,0,0,0,.67,81.71,19.08,19.08,0,0,0,6.27,95.88,19.52,19.52,0,0,0,20.6,101.43Zm0,118.29H379.4a19.52,19.52,0,0,0,14.33-5.54,20.71,20.71,0,0,0,0-28.34,19.52,19.52,0,0,0-14.33-5.54H20.6a19.52,19.52,0,0,0-14.33,5.54,20.71,20.71,0,0,0,0,28.34A19.52,19.52,0,0,0,20.6,219.71Z"/></svg>