<svg id="Layer_1" data-name="Layer 1" xmlns="http://www.w3.org/2000/svg" viewBox="0 0 400 400"><title>VC_Usability_Icons</title><path d="M289.57,195.66H124.23l53.82-59.44q4.82-4.82,0-9.64a8,8,0,0,0-9.64,0l-64.26,70.69a8,8,0,0,0,0,9.64q.8.8,64.26,70.69,4.82,4.82,9.64,0t0-9.64l-53.82-59.44H289.57q6.43,0,6.43-6.43T289.57,195.66Z"/><path d="M384.29,122.38A199.8,199.8,0,0,0,341.9,59,204.69,204.69,0,0,0,278.1,15.71Q241.9,0,200,0a195,195,0,0,0-77.62,15.71A192.22,192.22,0,0,0,59,59a192.22,192.22,0,0,0-43.33,63.33,199.55,199.55,0,0,0,0,155.24A192.22,192.22,0,0,0,59,341a192.22,192.22,0,0,0,63.33,43.33A195,195,0,0,0,200,400q41.9,0,78.1-15.71A204.69,204.69,0,0,0,341.9,341a199.8,199.8,0,0,0,42.38-63.33,199.55,199.55,0,0,0,0-155.24Zm-14.76,149a183.46,183.46,0,0,1-39,58.1,186.89,186.89,0,0,1-59,40A179.39,179.39,0,0,1,200,383.81a179.39,179.39,0,0,1-71.43-14.29,176.05,176.05,0,0,1-58.1-40A190.21,190.21,0,0,1,31,271.43,174.4,174.4,0,0,1,16.19,200,174.4,174.4,0,0,1,31,128.57a190.21,190.21,0,0,1,39.52-58.1,176.05,176.05,0,0,1,58.1-40A179.39,179.39,0,0,1,200,16.19a179.39,179.39,0,0,1,71.43,14.29,186.89,186.89,0,0,1,59,40,183.47,183.47,0,0,1,39,58.1A179.4,179.4,0,0,1,383.81,200,179.4,179.4,0,0,1,369.52,271.43Z"/></svg>