<?xml version="1.0" encoding="utf-8"?>
<!-- Generator: Adobe Illustrator 21.1.0, SVG Export Plug-In . SVG Version: 6.00 Build 0)  -->
<svg version="1.1" id="Layer_1" xmlns="http://www.w3.org/2000/svg" xmlns:xlink="http://www.w3.org/1999/xlink" x="0px" y="0px"
	 viewBox="0 0 400 400" style="enable-background:new 0 0 400 400;" xml:space="preserve">
<title>VC_Usability_Icons</title>
<g>
	<path d="M300,193.2H100c-4.4,0-8,3.6-8,8s3.6,8,8,8h200c4.4,0,8-3.6,8-8S304.4,193.2,300,193.2z"/>
	<path d="M384.5,123.4c-20.6-48-58.8-86.2-106.8-106.8C253.1,5.9,226.7,0.5,200,0.6c-26.7-0.1-53.1,5.3-77.6,15.9
		c-48,20.6-86.2,58.8-106.8,106.8C4.9,147.9-0.5,174.3-0.4,201c-0.1,26.7,5.3,53.1,15.9,77.6c20.6,48,58.8,86.2,106.8,106.8
		c24.5,10.6,50.9,16.1,77.6,15.9c26.7,0.1,53.1-5.3,77.6-15.9c48-20.6,86.2-58.8,106.8-106.8c10.6-24.5,16.1-50.9,15.9-77.6
		C400.5,174.3,395.1,147.9,384.5,123.4z M369.5,272.3L369.5,272.3c-18.6,44.4-53.9,79.6-98.2,98.2c-22.6,9.5-46.8,14.6-71.3,14.9
		c-24.5-0.3-48.7-5.4-71.3-14.9c-44.3-18.6-79.5-53.9-98.2-98.2c-9.6-22.6-14.6-46.8-14.9-71.3c0.3-24.5,5.4-48.7,14.9-71.3
		c18.6-44.3,53.9-79.6,98.2-98.2c22.6-9.6,46.8-14.6,71.3-14.9c24.5,0.3,48.7,5.4,71.3,14.9c44.3,18.6,79.5,53.9,98.2,98.2
		c9.6,22.6,14.6,46.8,14.9,71.3C384.2,225.5,379.1,249.7,369.5,272.3z"/>
</g>
</svg>
