<?xml version="1.0" encoding="utf-8"?>
<!-- Generator: Adobe Illustrator 21.1.0, SVG Export Plug-In . SVG Version: 6.00 Build 0)  -->
<svg version="1.1" id="Layer_1" xmlns="http://www.w3.org/2000/svg" xmlns:xlink="http://www.w3.org/1999/xlink" x="0px" y="0px"
	 viewBox="0 0 400 400" style="enable-background:new 0 0 400 400;" xml:space="preserve">
<path d="M200,220.7c14.8,0,27.3-5,37.4-15.1c10.4-10.4,15.6-22.8,15.6-37.1s-5.2-26.7-15.7-37.1c-10.4-10.4-22.9-15.6-37.3-15.6
	c-14.1,0-26.4,5.2-36.9,15.7s-15.7,22.8-15.7,37.1s5.2,26.7,15.7,37.1C173.2,215.7,185.5,220.7,200,220.7z M319.2,48.5
	c32.7,32.3,49,71.4,49,117.2c0,45.8-16.3,84.8-49,117.2L200,400L81.3,282.8c-33-32.3-49.5-71.4-49.5-117.2
	c0-45.8,16.5-84.8,49.5-117.2C114.3,16.2,154,0,200.5,0S286.5,16.2,319.2,48.5z"/>
</svg>
