<svg id="Layer_1" data-name="Layer 1" xmlns="http://www.w3.org/2000/svg" viewBox="0 0 400 400"><title>VC_Usability_Icons</title><path d="M110.43,204.34H275.77l-53.82,59.44q-4.82,4.82,0,9.64a8,8,0,0,0,9.64,0l64.26-70.69a8,8,0,0,0,0-9.64q-.8-.8-64.26-70.69-4.82-4.82-9.64,0t0,9.64l53.82,59.44H110.43q-6.43,0-6.43,6.43T110.43,204.34Z"/><path d="M15.71,277.62A199.8,199.8,0,0,0,58.1,341a204.69,204.69,0,0,0,63.81,43.33Q158.1,400,200,400a195,195,0,0,0,77.62-15.71A192.22,192.22,0,0,0,341,341a192.22,192.22,0,0,0,43.33-63.33,199.55,199.55,0,0,0,0-155.24A192.22,192.22,0,0,0,341,59a192.22,192.22,0,0,0-63.33-43.33A195,195,0,0,0,200,0q-41.9,0-78.1,15.71A204.69,204.69,0,0,0,58.1,59a199.8,199.8,0,0,0-42.38,63.33,199.55,199.55,0,0,0,0,155.24Zm14.76-149a183.46,183.46,0,0,1,39-58.1,186.89,186.89,0,0,1,59-40A179.39,179.39,0,0,1,200,16.19a179.39,179.39,0,0,1,71.43,14.29,176.05,176.05,0,0,1,58.1,40A190.21,190.21,0,0,1,369,128.57,174.4,174.4,0,0,1,383.81,200,174.4,174.4,0,0,1,369,271.43a190.21,190.21,0,0,1-39.52,58.1,176.05,176.05,0,0,1-58.1,40A179.39,179.39,0,0,1,200,383.81a179.39,179.39,0,0,1-71.43-14.29,186.89,186.89,0,0,1-59-40,183.47,183.47,0,0,1-39-58.1A179.4,179.4,0,0,1,16.19,200,179.4,179.4,0,0,1,30.48,128.57Z"/></svg>